<svg xmlns="http://www.w3.org/2000/svg" width="138.409" height="120.202" viewBox="0 0 138.409 120.202" class=""><link xmlns="" type="text/css" id="dark-mode" rel="stylesheet" href=""/><style xmlns="" type="text/css" id="dark-mode-Ñustom-style"/><style xmlns="" type="text/css" id="dark-mode-theme-changer-style"/>
    <defs>
        <style>
            .cls-1{fill:#36d3cd}.cls-2{fill:#ef6097}.cls-3{fill:#2f74fc}.cls-4{filter:url(#Path_71)}.cls-5{filter:url(#Path_69)}
        </style>
        <filter id="Path_69" width="85.987" height="90.244" x="52.422" y="0" filterUnits="userSpaceOnUse">
            <feOffset dy="-10"/>
            <feGaussianBlur result="blur" stdDeviation="10"/>
            <feFlood flood-color="#30bfb9" flood-opacity=".302"/>
            <feComposite in2="blur" operator="in"/>
            <feComposite in="SourceGraphic"/>
        </filter>
        <filter id="Path_71" width="85.987" height="90.244" x="0" y="0" filterUnits="userSpaceOnUse">
            <feOffset dy="-10"/>
            <feGaussianBlur result="blur-2" stdDeviation="10"/>
            <feFlood flood-color="#e1588d" flood-opacity=".302"/>
            <feComposite in2="blur-2" operator="in"/>
            <feComposite in="SourceGraphic"/>
        </filter>
    </defs>
    <g id="actv_usrs_icon" data-name="actv usrs icon" transform="translate(15.372 33.9)">
        <g id="Group_69" data-name="Group 69" transform="translate(62.794 6.1)">
            <path id="Path_68" d="M72.805 43.554A28.339 28.339 0 0 0 45.25 21.6a31.837 31.837 0 0 0-9.409 1.568A26.519 26.519 0 0 1 28 36.61a33.261 33.261 0 0 1 17.7 12.321h22.625a4.6 4.6 0 0 0 4.48-5.377z" class="cls-1" data-name="Path 68" transform="translate(-28 13.124)"/>
            <g class="cls-5" transform="translate(-78.17 -40)">
                <path id="Path_69-2" d="M42.894 36.343c7.169 0 12.994-10.081 12.994-17.25a12.994 12.994 0 0 0-25.987 0c-.001 7.169 5.824 17.25 12.993 17.25z" class="cls-1" data-name="Path 69" transform="translate(52.52 33.9)"/>
            </g>
        </g>
        <g id="Group_70" data-name="Group 70" transform="translate(-.054 6.1)">
            <path id="Path_70" d="M44.872 36.51a25.037 25.037 0 0 1-7.841-13.442 25.946 25.946 0 0 0-9.409-1.568A28.339 28.339 0 0 0 .067 43.455a4.449 4.449 0 0 0 4.257 5.377h22.85A33.261 33.261 0 0 1 44.872 36.51z" class="cls-2" data-name="Path 70" transform="translate(.054 13)"/>
            <g class="cls-4" transform="translate(-15.32 -40)">
                <path id="Path_71-2" d="M19.494 36.344c7.169 0 12.994-10.081 12.994-17.25a12.994 12.994 0 0 0-25.987 0c-.001 7.168 5.824 17.25 12.993 17.25z" class="cls-2" data-name="Path 71" transform="translate(23.5 33.9)"/>
            </g>
        </g>
        <g id="Group_74" data-name="Group 74" transform="translate(26.148 24.47)">
            <path id="Path_72" d="M39.327 29.7a28.339 28.339 0 0 0-27.555 21.955 4.339 4.339 0 0 0 4.256 5.377H62.4a4.339 4.339 0 0 0 4.257-5.377A27.9 27.9 0 0 0 39.327 29.7z" class="cls-3" data-name="Path 72" transform="translate(-11.642 4.8)"/>
            <path id="Path_73" d="M31.194 44.544c7.169 0 12.994-10.081 12.994-17.25a12.994 12.994 0 1 0-25.987 0c-.001 7.168 5.824 17.25 12.993 17.25z" class="cls-3" data-name="Path 73" transform="translate(-3.509 -14.3)"/>
        </g>
    </g>
</svg>