<svg xmlns="http://www.w3.org/2000/svg" width="9.256" height="9" class=""><link xmlns="" type="text/css" id="dark-mode" rel="stylesheet" href=""/><style xmlns="" type="text/css" id="dark-mode-сustom-style"/><style xmlns="" type="text/css" id="dark-mode-theme-changer-style"/><g id="cv_icon" data-name="cv icon" transform="translate(13.479 4)"><path id="Path_319" d="m7.212-58.326-6.055.964A1.223 1.223 0 0 0 0-56.151v5.651c0 1.16 0 1.16 1.157 1.16h7.312a.762.762 0 0 0 .787-.787V-55.5a.762.762 0 0 0-.787-.787h-7.1c-.332 0-.363-.262 0-.3l6.734-.7v-.378a.692.692 0 0 0-.891-.661zm.6 6.032a.668.668 0 0 1-.679-.671.675.675 0 0 1 .679-.679.668.668 0 0 1 .671.679.662.662 0 0 1-.669.671zm0 0" data-name="Path 319" transform="translate(-13.479 54.34)" style="fill:#fff"/></g></svg>