<svg xmlns="http://www.w3.org/2000/svg" id="amt_invst_icon" width="5.958" height="9" data-name="amt invst icon" class=""><link xmlns="" type="text/css" id="dark-mode" rel="stylesheet" href=""/><style xmlns="" type="text/css" id="dark-mode-Ñustom-style"/><style xmlns="" type="text/css" id="dark-mode-theme-changer-style"/><defs><style>.cls-1{fill:#fff}</style></defs><path id="Path_305" d="M30.933 35.454a2.754 2.754 0 1 0-5.508 0l-.225 3.793h5.958zm-2.128-.338h.313a.25.25 0 0 1 0 .5h-.313a1.014 1.014 0 0 1-.939.826l.889.851a.275.275 0 0 1 .013.363.25.25 0 0 1-.188.075.3.3 0 0 1-.175-.063l-1.339-1.264a.25.25 0 0 1-.05-.275.238.238 0 0 1 .225-.138h.538a.513.513 0 0 0 .488-.376H27.24a.25.25 0 0 1 0-.5h1.026a.626.626 0 0 0-.488-.25h-.538a.25.25 0 0 1 0-.5h1.878a.25.25 0 0 1 0 .5h-.438c.05.126.1.126.125.251z" class="cls-1" data-name="Path 305" transform="translate(-25.2 -30.247)"/><path id="Path_306" d="m33.79 15.253-.363-1.127a.255.255 0 1 1 .488-.15L34.3 15.2h.25l.163-.826a.263.263 0 0 1 .3-.2.238.238 0 0 1 .188.288l-.15.814.225.05 1.177-2.191-.388.088a6.522 6.522 0 0 1-2.6.075L32.3 13.1l1.2 2.228z" class="cls-1" data-name="Path 306" transform="translate(-31.411 -13.1)"/></svg>