<svg xmlns="http://www.w3.org/2000/svg" width="10.456" height="9" class=""><link xmlns="" type="text/css" id="dark-mode" rel="stylesheet" href=""/><style xmlns="" type="text/css" id="dark-mode-сustom-style"/><style xmlns="" type="text/css" id="dark-mode-theme-changer-style"/><g id="ng_icon" data-name="ng icon" transform="translate(-3.984 -7.204)"><path id="Path_321" d="M5.03 2.227A1.588 1.588 0 0 0 3.655 4.61h2.75a1.59 1.59 0 0 0 .213-.794A1.588 1.588 0 0 0 5.03 2.227zm-2.912.794v1.9a3.446 3.446 0 0 0-.72.946l-1.4.6V8.05l1.4.6a3.59 3.59 0 0 0 1.249 1.36v1.217h1.324v-.653a4.59 4.59 0 0 0 2.118 0v.653h1.323v-1.218a3.373 3.373 0 0 0 1.563-2.357H9a1.455 1.455 0 0 0 1.03-2.485l-.562.562a.661.661 0 0 1-.495 1.129 3.462 3.462 0 0 0-1.978-2.592 1.759 1.759 0 0 1-.365.767H3.422a2.113 2.113 0 0 1-.377-.893 1.767 1.767 0 0 1 .055-.893 2.649 2.649 0 0 0-.977-.226zm.662 2.912h.041l.039.006.039.01A.389.389 0 0 1 3 6l.008.007.023.017.012.011.017.015.01.011.015.017.009.012.013.019.006.01.013.022v.01l.01.023v.011c0 .008.006.016.008.024a.108.108 0 0 1 0 .011c0 .008 0 .016.005.024s0 .009 0 .015v.055a.355.355 0 0 1 0 .042.394.394 0 0 1-.047.15.58.58 0 0 1-.02.033l.018.028-.013.017-.014.016-.015.016-.012.011-.017.015-.011.008L3 6.661l-.012.007-.02.012-.011.006-.023.01h-.009l-.025.008h-.011l-.023.005h-.112l-.054.01a.386.386 0 0 1-.111-.041l-.033-.021-.008-.006-.024-.018-.011-.01-.013-.015-.013-.008-.015-.017-.009-.012-.013-.018-.007-.011-.012-.022v-.01l-.01-.024v-.01L2.4 6.44a.108.108 0 0 1 0-.011c0-.008 0-.016-.005-.024s0-.009 0-.015V6.335a.355.355 0 0 1 0-.042.384.384 0 0 1 .006-.039.4.4 0 0 1 .041-.111.345.345 0 0 1 .018-.03l.008-.011.016-.021.01-.012.006-.022.012-.011.016-.014.012-.009L2.563 6l.011-.007.026-.015.01-.005.023-.01h.011l.023-.008h.012l.024-.005h.071z" data-name="Path 321" transform="translate(3.983 4.977)" style="fill:#fff"/></g></svg>