<svg xmlns="http://www.w3.org/2000/svg" width="7.243" height="9" class=""><link xmlns="" type="text/css" id="dark-mode" rel="stylesheet" href=""/><style xmlns="" type="text/css" id="dark-mode-Ñustom-style"/><style xmlns="" type="text/css" id="dark-mode-theme-changer-style"/><defs><style>.cls-1{fill:#fff}</style></defs><g id="nirr_icon" data-name="nirr icon" transform="translate(-48.918 -40.361)"><path id="Path_315" d="M54.57 42.241a.256.256 0 0 0 .11-.268l-.2-1.37a.309.309 0 0 0-.142-.2.285.285 0 0 0-.252-.016l-1.26.551a.33.33 0 0 0-.173.236.267.267 0 0 0 .142.252l.347.189-1.055 1.922-1.055-.583a.445.445 0 0 0-.614.173l-1.433 2.567a.445.445 0 0 0 .173.614.392.392 0 0 0 .268.047.1.1 0 0 0 .063-.016.458.458 0 0 0 .268-.221l1.229-2.174 1.055.583a.445.445 0 0 0 .614-.173l1.276-2.3.347.189a.291.291 0 0 0 .292-.002z" class="cls-1" data-name="Path 315"/><path id="Path_316" d="M50.622 84.5h-1.386a.242.242 0 0 0-.236.236v1.575a.242.242 0 0 0 .236.236h1.386a.242.242 0 0 0 .236-.236v-1.575a.254.254 0 0 0-.236-.236z" class="cls-1" data-name="Path 316" transform="translate(-.069 -37.187)"/><path id="Path_317" d="M67.622 73.7h-1.386a.242.242 0 0 0-.236.236v3.276a.242.242 0 0 0 .236.236h1.386a.242.242 0 0 0 .236-.236v-3.276a.242.242 0 0 0-.236-.236z" class="cls-1" data-name="Path 317" transform="translate(-14.391 -28.088)"/><path id="Path_318" d="M84.722 60.5h-1.386a.242.242 0 0 0-.236.236v5.355a.242.242 0 0 0 .236.236h1.386a.242.242 0 0 0 .236-.236v-5.355a.254.254 0 0 0-.236-.236z" class="cls-1" data-name="Path 318" transform="translate(-28.798 -16.967)"/></g></svg>